<svg width="992" height="156" viewBox="0 0 992 156" fill="none" xmlns="http://www.w3.org/2000/svg">
<path fill-rule="evenodd" clip-rule="evenodd" d="M148.301 0H90.5663L0.499634 156H58.2347L148.301 0ZM142.536 156H84.8009L174.868 0H232.603L142.536 156ZM169.102 156H226.837L316.904 0H259.169L169.102 156ZM311.138 156H253.403L343.47 0H401.205L375.802 44H368V57.513L311.138 156ZM368 103.527L337.705 156H395.44L420.843 112H368V103.527ZM447.409 112L422.006 156H479.741L505.144 112H447.409ZM544.404 44H486.669L512.073 0H569.808L544.404 44ZM531.711 112L506.307 156H564.042L589.446 112H531.711ZM624 52.1501V44H570.97L596.374 0H654.109L624 52.1501ZM616.012 112H624V98.1642L680.675 0H738.41L648.344 156H590.609L616.012 112ZM460.103 44H402.368L427.771 0H485.506L460.103 44ZM674.91 156H732.645L822.711 0H764.976L674.91 156ZM816.946 156H759.211L849.278 0H907.013L816.946 156ZM843.512 156H901.247L991.314 0H933.579L843.512 156Z" fill="#EDE3E4"/>
<path d="M393.688 91V64.8182H412.557V70.5455H400.795V75.0455H411.585V80.7727H400.795V85.2727H412.506V91H393.688ZM416.082 91V64.8182H427.383C429.326 64.8182 431.027 65.1719 432.484 65.8793C433.941 66.5866 435.075 67.6051 435.885 68.9347C436.694 70.2642 437.099 71.858 437.099 73.7159C437.099 75.5909 436.681 77.1719 435.846 78.4588C435.02 79.7457 433.856 80.7173 432.356 81.3736C430.865 82.0298 429.122 82.358 427.127 82.358H420.377V76.8352H425.696C426.531 76.8352 427.243 76.733 427.831 76.5284C428.427 76.3153 428.883 75.9787 429.199 75.5185C429.522 75.0582 429.684 74.4574 429.684 73.7159C429.684 72.9659 429.522 72.3565 429.199 71.8878C428.883 71.4105 428.427 71.0611 427.831 70.8395C427.243 70.6094 426.531 70.4943 425.696 70.4943H423.19V91H416.082ZM431.423 78.983L437.968 91H430.247L423.855 78.983H431.423ZM440.129 91V64.8182H451.43C453.373 64.8182 455.074 65.1719 456.531 65.8793C457.988 66.5866 459.122 67.6051 459.931 68.9347C460.741 70.2642 461.146 71.858 461.146 73.7159C461.146 75.5909 460.728 77.1719 459.893 78.4588C459.066 79.7457 457.903 80.7173 456.403 81.3736C454.912 82.0298 453.169 82.358 451.174 82.358H444.424V76.8352H449.743C450.578 76.8352 451.289 76.733 451.877 76.5284C452.474 76.3153 452.93 75.9787 453.245 75.5185C453.569 75.0582 453.731 74.4574 453.731 73.7159C453.731 72.9659 453.569 72.3565 453.245 71.8878C452.93 71.4105 452.474 71.0611 451.877 70.8395C451.289 70.6094 450.578 70.4943 449.743 70.4943H447.237V91H440.129ZM455.47 78.983L462.015 91H454.294L447.902 78.983H455.47ZM489.539 77.9091C489.539 80.8239 488.973 83.2827 487.839 85.2855C486.706 87.2798 485.176 88.7926 483.25 89.8239C481.324 90.8466 479.176 91.358 476.806 91.358C474.42 91.358 472.264 90.8423 470.338 89.8111C468.42 88.7713 466.895 87.2543 465.761 85.2599C464.636 83.2571 464.074 80.8068 464.074 77.9091C464.074 74.9943 464.636 72.5398 465.761 70.5455C466.895 68.5426 468.42 67.0298 470.338 66.0071C472.264 64.9759 474.42 64.4602 476.806 64.4602C479.176 64.4602 481.324 64.9759 483.25 66.0071C485.176 67.0298 486.706 68.5426 487.839 70.5455C488.973 72.5398 489.539 74.9943 489.539 77.9091ZM482.227 77.9091C482.227 76.3409 482.018 75.0199 481.6 73.946C481.191 72.8636 480.582 72.0455 479.772 71.4915C478.971 70.929 477.983 70.6477 476.806 70.6477C475.63 70.6477 474.637 70.929 473.828 71.4915C473.027 72.0455 472.417 72.8636 472 73.946C471.591 75.0199 471.386 76.3409 471.386 77.9091C471.386 79.4773 471.591 80.8026 472 81.8849C472.417 82.9588 473.027 83.777 473.828 84.3395C474.637 84.8935 475.63 85.1705 476.806 85.1705C477.983 85.1705 478.971 84.8935 479.772 84.3395C480.582 83.777 481.191 82.9588 481.6 81.8849C482.018 80.8026 482.227 79.4773 482.227 77.9091ZM492.828 91V64.8182H504.129C506.072 64.8182 507.773 65.1719 509.23 65.8793C510.688 66.5866 511.821 67.6051 512.631 68.9347C513.44 70.2642 513.845 71.858 513.845 73.7159C513.845 75.5909 513.428 77.1719 512.592 78.4588C511.766 79.7457 510.602 80.7173 509.102 81.3736C507.611 82.0298 505.868 82.358 503.874 82.358H497.124V76.8352H502.442C503.277 76.8352 503.989 76.733 504.577 76.5284C505.173 76.3153 505.629 75.9787 505.945 75.5185C506.268 75.0582 506.43 74.4574 506.43 73.7159C506.43 72.9659 506.268 72.3565 505.945 71.8878C505.629 71.4105 505.173 71.0611 504.577 70.8395C503.989 70.6094 503.277 70.4943 502.442 70.4943H499.936V91H492.828ZM508.169 78.983L514.714 91H506.993L500.601 78.983H508.169ZM523.842 86.9091V81.3864L534.376 64.8182H539.388V72.1818H536.524L530.848 81.1818V81.3864H546.393V86.9091H523.842ZM536.575 91V85.2216L536.729 82.8182V64.8182H543.376V91H536.575ZM560.779 91.7159C558.401 91.7074 556.347 91.1577 554.617 90.0668C552.887 88.9759 551.553 87.4034 550.615 85.3494C549.678 83.2955 549.213 80.8324 549.222 77.9602C549.23 75.0795 549.699 72.6335 550.628 70.6222C551.566 68.6108 552.895 67.081 554.617 66.0327C556.347 64.9844 558.401 64.4602 560.779 64.4602C563.157 64.4602 565.211 64.9886 566.941 66.0455C568.671 67.0937 570.005 68.6236 570.942 70.6349C571.88 72.6463 572.344 75.0881 572.336 77.9602C572.336 80.8494 571.867 83.321 570.929 85.375C569.992 87.429 568.658 89.0014 566.928 90.0923C565.206 91.1747 563.157 91.7159 560.779 91.7159ZM560.779 85.9375C562.006 85.9375 563.012 85.2983 563.796 84.0199C564.588 82.733 564.98 80.7131 564.972 77.9602C564.972 76.1619 564.793 74.6918 564.435 73.5497C564.077 72.4077 563.583 71.5639 562.952 71.0185C562.321 70.4645 561.597 70.1875 560.779 70.1875C559.551 70.1875 558.55 70.8097 557.775 72.054C556.999 73.2983 556.603 75.267 556.586 77.9602C556.577 79.7926 556.752 81.3011 557.11 82.4858C557.468 83.6619 557.962 84.5312 558.593 85.0938C559.232 85.6562 559.961 85.9375 560.779 85.9375ZM575.417 86.9091V81.3864L585.951 64.8182H590.962V72.1818H588.098L582.422 81.1818V81.3864H597.968V86.9091H575.417ZM588.15 91V85.2216L588.303 82.8182V64.8182H594.951V91H588.15Z" fill="#EDE3E4"/>
</svg>
